# xmcd
#
# Track frame offsets:
#	150
#	19678
#	40698
#	54327
#	72204
#	85438
#	100382
#	115469
#	131009
#	143660
#	160052
#	172497
#	190402
#	207326
#
# Disc length: 3026 seconds
#
# Revision: 1
# Processed by: cddbd v1.5.2PL0 Copyright (c) Steve Scherf et al.
# Submitted via: audiograbber 1.83.01
#
DISCID=cb0bd00e
DTITLE=Norah Jones - Not Too Late
DYEAR=2007
DGENRE=Vocal
TTITLE0=Wish I Could
TTITLE1=Sinkin' Soon
TTITLE2=The Sun Doesn't Like You
TTITLE3=Until The End
TTITLE4=Not My Friend
TTITLE5=Thinking About You
TTITLE6=Broken
TTITLE7=My Dear Country
TTITLE8=Wake Me Up
TTITLE9=Be My Somebody
TTITLE10=Little Room
TTITLE11=Rosie's Lullaby
TTITLE12=Not Too Late
TTITLE13=Sinkin' Soon
EXTD=
EXTT0=
EXTT1=
EXTT2=
EXTT3=
EXTT4=
EXTT5=
EXTT6=
EXTT7=
EXTT8=
EXTT9=
EXTT10=
EXTT11=
EXTT12=
EXTT13=
PLAYORDER=
